# xmcd
#
# Track frame offsets: 
#        300
#        14478
#        31950
#        46937
#        66571
#        82212
#        102226
#        115455
#        131404
#        147834
#        168485
#
# Disc length: 2468 seconds
#
# Revision: 0
# Processed by: cddbd v1.5.2PL0 Copyright (c) Steve Scherf et al.
# Submitted via: ExactAudioCopy v1.0b1
#
DISCID=9f09a00b
DTITLE=Bleass Blues Band - Hooked On You
DYEAR=1996
DGENRE=General Blues
TTITLE0=Two Sides Of The Story
TTITLE1=You Really Knock Me Out
TTITLE2=Caldonia
TTITLE3=Waitin' For My Baby
TTITLE4=Voodoo Girl
TTITLE5=She Belongs To Me
TTITLE6=Ain't No Sunshine
TTITLE7=Ready To Shake
TTITLE8=Automatic
TTITLE9=Hooked On You
TTITLE10=Give Me Back My Wig
EXTD=
EXTT0=
EXTT1=
EXTT2=
EXTT3=
EXTT4=
EXTT5=
EXTT6=
EXTT7=
EXTT8=
EXTT9=
EXTT10=
PLAYORDER=
